GIL06_slow2_RRA_states
nRows=8
nColumns=47

# SIMM Motion File Header:
name GIL06_slow2_RRA_states
datacolumns 47
datarows 8
otherdata 1
range 0.50983000000000012000 0.51333000000000018000
endheader
time	pelvis_tx	pelvis_ty	pelvis_tz	pelvis_tilt	pelvis_list	pelvis_rotation	hip_flexion_r	hip_adduction_r	hip_rotation_r	knee_angle_r	ankle_angle_r	subtalar_angle_r	mtp_angle_r	hip_flexion_l	hip_adduction_l	hip_rotation_l	knee_angle_l	ankle_angle_l	subtalar_angle_l	mtp_angle_l	lumbar_extension	lumbar_bending	lumbar_rotation	pelvis_tx_u	pelvis_ty_u	pelvis_tz_u	pelvis_tilt_u	pelvis_list_u	pelvis_rotation_u	hip_flexion_r_u	hip_adduction_r_u	hip_rotation_r_u	knee_angle_r_u	ankle_angle_r_u	subtalar_angle_r_u	mtp_angle_r_u	hip_flexion_l_u	hip_adduction_l_u	hip_rotation_l_u	knee_angle_l_u	ankle_angle_l_u	subtalar_angle_l_u	mtp_angle_l_u	lumbar_extension_u	lumbar_bending_u	lumbar_rotation_u
      0.50983000000000012000	      1.64430163997053880000	      0.83153481210254876000	     -0.28842754567668721000	     -5.95536860283661170000	      0.44743229106628196000	     -0.77717165989103398000	     32.98475704776494400000	      0.37338960796119008000	      8.11382573978541190000	    -30.50293807918816600000	      2.75796200881809520000	      0.00000000000000052831	      0.00000000000000293568	     -2.56465045217067770000	      5.42268626627448040000	     -1.88563265497266230000	     -1.85051144004702150000	      4.72255842011697880000	     -0.00000000000002214371	     -0.00000000000002898416	      6.68807635561081160000	     -0.56973801387783529000	      5.08360739925775280000	      0.76179220522068236000	     -0.09941743139085823500	     -0.04174508206727650700	     -3.91434678842700290000	      1.54145077060651920000	     35.34841703848563600000	      4.94237918975075100000	     -0.52775934171227235000	     -8.36405639883940740000	    321.67295279203967000000	   -151.15396358735993000000	     -0.00000000000000938301	      0.00000000000003438445	    -51.36639772092931400000	      3.60464211125253220000	     -2.48693880728896130000	     -5.19330509873143600000	     29.16077847060902100000	      0.00000000000016772557	     -0.00000000000075137443	     13.40695094301550000000	    -15.91127077123406300000	     -1.18982744992060030000
      0.51033000000000017000	      1.64468267918128410000	      0.83148503760312287000	     -0.28844839788338961000	     -5.95731052021320370000	      0.44820813956785949000	     -0.75949299107341328000	     32.98714836920173400000	      0.37308437016286938000	      8.10953049361863520000	    -30.34220693159180400000	      2.68212437000622740000	      0.00000000000000052350	      0.00000000000000295237	     -2.59032158376293430000	      5.42448223132231270000	     -1.88693655694304190000	     -1.85318088370051770000	      4.73717874516724180000	     -0.00000000000002206055	     -0.00000000000002935457	      6.69478255060164430000	     -0.57770406435747379000	      5.08303461759610810000	      0.76236472885082274000	     -0.09968019554056550800	     -0.04166404226223462800	     -3.85331527169017060000	      1.56146610465136090000	     35.36619825815069600000	      4.62349490682514560000	     -0.69261824526754667000	     -8.81747397889783180000	    321.24953633461689000000	   -152.19382777475238000000	     -0.00000000000000982201	      0.00000000000003317005	    -51.31798761073283500000	      3.57858948684942660000	     -2.72881925948585250000	     -5.48478231075600500000	     29.32055690601356400000	      0.00000000000018497950	     -0.00000000000078294731	     13.41779239030153200000	    -15.95218490413722500000	     -1.10174644493775790000
      0.51083000000000012000	      1.64506400478911410000	      0.83143513227811017000	     -0.28846921001448272000	     -5.95922191238915030000	      0.44899328324413834000	     -0.74180551756533075000	     32.98938113010611100000	      0.37269755957834055000	      8.10500772799630200000	    -30.18169063574243400000	      2.60577097863997410000	      0.00000000000000051847	      0.00000000000000296901	     -2.61596830345547860000	      5.42626422784366010000	     -1.88836161247274450000	     -1.85599651528499730000	      4.75187896125786490000	     -0.00000000000002196553	     -0.00000000000002975313	      6.70149411270186950000	     -0.58568945821343910000	      5.08250520075355090000	      0.76293779013041219000	     -0.09994073273623768600	     -0.04158477580906312600	     -3.79224950742301740000	      1.57863787013792110000	     35.38364388482028700000	      4.30813558909158710000	     -0.85405781708762885000	     -9.27411778223906320000	    320.81356310813715000000	   -153.21690516377191000000	     -0.00000000000001012736	      0.00000000000003400879	    -51.26875960487293300000	      3.54876941718283190000	     -2.97152889141550870000	     -5.77801674434313120000	     29.48024026787485100000	      0.00000000000020445317	     -0.00000000000084877457	     13.42842201706241000000	    -15.98865559821412500000	     -1.01637792470837440000
      0.51133000000000017000	      1.64544561705639360000	      0.83138509724094889000	     -0.28848998295213907000	     -5.96110276738166520000	      0.44978630636512373000	     -0.72410939873686875000	     32.99145709478873600000	      0.37223088080930383000	      8.10025585456931550000	    -30.02139545696706300000	      2.52891031376176610000	      0.00000000000000051356	      0.00000000000000298607	     -2.64159020486660360000	      5.42803037358044180000	     -1.88990821120958640000	     -1.85895918864895490000	      4.76665896102058890000	     -0.00000000000002186416	     -0.00000000000003017539	      6.70821094063451540000	     -0.59369198481476149000	      5.08201778220265600000	      0.76351136058080815000	     -0.10019904622728501000	     -0.04150726710675606300	     -3.73116978372746070000	      1.59298318973212850000	     35.40078019412606400000	      3.99631664349859640000	     -1.01208643577905290000	     -9.73388856326022810000	    320.36505951831703000000	   -154.22288774928069000000	     -0.00000000000000921074	      0.00000000000003470711	    -51.21870064820583200000	      3.51518645699176570000	     -3.21499054308454420000	     -6.07298004795366000000	     29.63977663073773200000	      0.00000000000019279057	     -0.00000000000079332700	     13.43885972553587700000	    -16.02071541407155700000	     -0.93375431386656793000
      0.51183000000000012000	      1.64582751623078380000	      0.83133493360013089000	     -0.28851071757106189000	     -5.96295308340600270000	      0.45058579816868866000	     -0.70640478503709825000	     32.99337803981505600000	      0.37168604067822719000	      8.09527333521145390000	    -29.86132766165146900000	      2.45155099367820380000	      0.00000000000000050901	      0.00000000000000300334	     -2.66718686317665690000	      5.42977878785069470000	     -1.89157671567814020000	     -1.86206977869945310000	      4.78151870633098760000	     -0.00000000000002177396	     -0.00000000000003055159	      6.71493294402901240000	     -0.60170944385464009000	      5.08157098457050880000	      0.76408541761610493000	     -0.10045514974454951000	     -0.04143149643436369600	     -3.67009698553625310000	      1.60451935416986120000	     35.41763122080929800000	      3.68805510066978790000	     -1.16671069311291030000	    -10.19668456464917300000	    319.90404684153924000000	   -155.21145870701483000000	     -0.00000000000000872297	      0.00000000000003429261	    -51.16779686017920900000	      3.47784535659798210000	     -3.45912719120618650000	     -6.36964311598204880000	     29.79912304572726400000	      0.00000000000017746718	     -0.00000000000074646772	     13.44912645111058700000	    -16.04839719240020600000	     -0.85390272697821057000
      0.51233000000000017000	      1.64620970255226170000	      0.83128464245737754000	     -0.28853141473622274000	     -5.96477286840300990000	      0.45139036097490182000	     -0.68869181025174053000	     32.99514574409668200000	      0.37106473510533872000	      8.09005868245311890000	    -29.70149348845496100000	      2.37370180270702310000	      0.00000000000000050443	      0.00000000000000302072	     -2.69275785928713510000	      5.43150759405133070000	     -1.89336743761173330000	     -1.86532911020827410000	      4.79645804367825960000	     -0.00000000000002168717	     -0.00000000000003091367	      6.72166004145356590000	     -0.60973965858642176000	      5.08116341220443330000	      0.76465994312398211000	     -0.10070905597564984000	     -0.04135745129803595300	     -3.60904871729825420000	      1.61326686742790830000	     35.43422549161868300000	      3.38335978742286160000	     -1.31794441808643700000	    -10.66240500615087900000	    319.43056344363737000000	   -156.18233974919289000000	     -0.00000000000000845693	      0.00000000000003500280	    -51.11603819494969500000	      3.43675481009101520000	     -3.70385918656466110000	     -6.66797652467283350000	     29.95822666918239800000	      0.00000000000015519386	     -0.00000000000066069806	     13.45923962426713800000	    -16.07173816329879700000	     -0.77685455266499392000
      0.51283000000000012000	      1.64659217624748380000	      0.83123422490985910000	     -0.28855207530670152000	     -5.96656213944243240000	      0.45219860354099062000	     -0.67097059823596883000	     32.99676199609074000000	      0.37036865957348347000	      8.08461046012231140000	    -29.54189917233267700000	      2.29537165210209080000	      0.00000000000000050035	      0.00000000000000303804	     -2.71830275688338350000	      5.43321491912607880000	     -1.89528066113450140000	     -1.86873802874016850000	      4.81147688536101640000	     -0.00000000000002160600	     -0.00000000000003125586	      6.72839216118646450000	     -0.61778046466043979000	      5.08079365861341080000	      0.76523490938847405000	     -0.10096076765264084000	     -0.04128511235581032400	     -3.54804443225420620000	      1.61924541762351320000	     35.45058762228359900000	      3.08224374773478750000	     -1.46579812619341960000	    -11.13094530483059700000	    318.94463592156285000000	   -157.13523062080492000000	     -0.00000000000000757175	      0.00000000000003467133	    -51.06341266357785700000	      3.39192313700255090000	     -3.94910853221983070000	     -6.96795067937966910000	     30.11704397026684500000	      0.00000000000015864700	     -0.00000000000067804279	     13.46921797330969300000	    -16.09077498462026100000	     -0.70263491990552507000
      0.51333000000000018000	      1.64697493753056910000	      0.83118368205503368000	     -0.28857270012980135000	     -5.96832092342074640000	      0.45300914822086819000	     -0.65324125721687498000	     32.99822858650696100000	      0.36959949841098994000	      8.07892728486850760000	    -29.38255092229572400000	      2.21656962059889830000	      0.00000000000000049658	      0.00000000000000305517	     -2.74382112539936470000	      5.43489889514575000000	     -1.89731661972016360000	     -1.87229732950915760000	      4.82657503121894390000	     -0.00000000000002152722	     -0.00000000000003159368	      6.73512924009730260000	     -0.62582972236577938000	      5.08046030170047920000	      0.76581028846005350000	     -0.10121028715622744000	     -0.04121446085085246600	     -3.48710373492472980000	      1.62247494350547550000	     35.46674220179436100000	      2.78472005188240650000	     -1.61028308960811930000	    -11.60219864429143200000	    318.44629042291552000000	   -158.06982921474301000000	     -0.00000000000000680091	      0.00000000000003426952	    -51.00990788454987500000	      3.34335929130655260000	     -4.19479909960571360000	     -7.26953619976676360000	     30.27552217716764100000	      0.00000000000015745569	     -0.00000000000066635358	     13.47908033311490600000	    -16.10554456361899900000	     -0.63126887422828770000
